# Rhino

v -50 0 -100
v 650 0 -100
v -50 0 100
v 650 0 100
v 650 0 0
v 50 0 100
v 350 0 100
v 350 0 -100
v 50 0 -100
v 650 0 -100
v 650 150 -100
v 650 0 100
v 650 150 100
v 650 0 0
v 50 0 100
v 50 150 100
v 650 0 100
v 650 150 100
v 350 0 100
v 90 150 100
v 350 150 100
v 350 75 100
v 350 112.5 100
v 200 150 100
v 200 75 100
v 200 112.5 100
v 50 0 -100
v 50 150 -100
v 650 0 -100
v 650 150 -100
v 350 0 -100
v 90 150 -100
v 350 150 -100
v 350 75 -100
v 350 112.5 -100
v 200 150 -100
v 200 75 -100
v 200 112.5 -100
v 50 600 100
v 50 150 100
v 50 600 -100
v 50 150 -100
v 50 375 -100
v 50 150 0
v 50 375 100
v 50 600 0
v -50 0 -100
v -50 0 100
v -50 600 -100
v -50 600 100
v -50 300 -100
v -50 300 100
v -50 0 -100
v -50 600 -100
v 50 0 -100
v 50 600 -100
v 50 150 -100
v 50 375 -100
v -50 300 -100
v 0 600 -100
v -50 0 100
v -50 600 100
v 50 0 100
v 50 600 100
v 50 150 100
v 50 375 100
v -50 300 100
v 0 600 100
v 50 150 -100
v 90 150 -100
v 50 150 100
v 90 150 100
v 50 150 0
v 90 150 0
vt 0.7894737 0
vt 0.7894737 0.7368421
vt 0.9985352 0
vt 0.9985352 0.7368421
vt 0.8940044 0.7368421
vt 0.9985352 0.1052632
vt 0.9985352 0.4210527
vt 0.7894737 0.4210527
vt 0.7894737 0.1052632
vt 0 0.04210526
vt 0 0.1985352
vt 0.2105263 0.04210526
vt 0.2105263 0.1985352
vt 0.1052632 0.04210526
vt 0 0.2
vt 0 0.3564299
vt 0.6315789 0.2
vt 0.6315789 0.3564299
vt 0.3157895 0.2
vt 0.04210526 0.3564299
vt 0.3157895 0.3564299
vt 0.3157895 0.278215
vt 0.3157895 0.3173224
vt 0.1578947 0.3564299
vt 0.1578947 0.278215
vt 0.1578947 0.3173224
vt 0.7880089 0.3578947
vt 0.6315789 0.3578947
vt 0.7880089 0.9880089
vt 0.6315789 0.9880089
vt 0.7880089 0.6729518
vt 0.6315789 0.3999023
vt 0.6315789 0.6729518
vt 0.7097939 0.6729518
vt 0.6706864 0.6729518
vt 0.6315789 0.5154232
vt 0.7097939 0.5154232
vt 0.6706864 0.5154232
vt 0 0.3578947
vt 0 0.831579
vt 0.2090615 0.3578947
vt 0.2090615 0.831579
vt 0.2090615 0.5947368
vt 0.1045307 0.831579
vt 0 0.5947368
vt 0.1045307 0.3578947
vt 0.4195878 0.3578947
vt 0.2105263 0.3578947
vt 0.4195878 0.9880089
vt 0.2105263 0.9880089
vt 0.4195878 0.6729518
vt 0.2105263 0.6729518
vt 0.5263158 0.3578947
vt 0.5263158 0.9880089
vt 0.6301141 0.3578947
vt 0.6301141 0.9880089
vt 0.6301141 0.5154232
vt 0.6301141 0.7517161
vt 0.5263158 0.6729518
vt 0.5782149 0.9880089
vt 0.4210526 0.3578947
vt 0.4210526 0.9880089
vt 0.524851 0.3578947
vt 0.524851 0.9880089
vt 0.524851 0.5154232
vt 0.524851 0.7517161
vt 0.4210526 0.6729518
vt 0.4729518 0.9880089
vt 0 0
vt 0 0.04064042
vt 0.2105263 0
vt 0.2105263 0.04064042
vt 0.1052632 0
vt 0.1052632 0.04064042
vn 0 1 0
vn 0 1 0
vn 0 1 0
vn 0 1 0
vn 0 1 0
vn 0 1 0
vn 0 1 0
vn 0 1 0
vn 0 1 0
vn -1 0 0
vn -1 0 0
vn -1 0 0
vn -1 0 0
vn -1 0 0
vn 0 0 -1
vn 0 0 -1
vn 0 0 -1
vn 0 0 -1
vn 0 0 -1
vn 0 0 -1
vn 0 0 -1
vn 0 0 -1
vn 0 0 -1
vn 0 0 -1
vn 0 0 -1
vn 0 0 -1
vn 0 0 1
vn 0 0 1
vn 0 0 1
vn 0 0 1
vn 0 0 1
vn 0 0 1
vn 0 0 1
vn 0 0 1
vn 0 0 1
vn 0 0 1
vn 0 0 1
vn 0 0 1
vn -1 0 0
vn -1 0 0
vn -1 0 0
vn -1 0 0
vn -1 0 0
vn -1 0 0
vn -1 0 0
vn -1 0 0
vn 1 0 0
vn 1 0 0
vn 1 0 0
vn 1 0 0
vn 1 0 0
vn 1 0 0
vn 0 0 1
vn 0 0 1
vn 0 0 1
vn 0 0 1
vn 0 0 1
vn 0 0 1
vn 0 0 1
vn 0 0 1
vn 0 0 -1
vn 0 0 -1
vn 0 0 -1
vn 0 0 -1
vn 0 0 -1
vn 0 0 -1
vn 0 0 -1
vn 0 0 -1
vn 0 -1 0
vn 0 -1 0
vn 0 -1 0
vn 0 -1 0
vn 0 -1 0
vn 0 -1 0
f 9/9/9 1/1/1 3/3/3
f 5/5/5 2/2/2 8/8/8
f 8/8/8 9/9/9 6/6/6
f 4/4/4 5/5/5 7/7/7
f 7/7/7 5/5/5 8/8/8
f 14/14/14 11/11/11 10/10/10
f 13/13/13 14/14/14 12/12/12
f 11/11/11 14/14/14 13/13/13
f 21/21/21 23/23/23 26/26/26
f 23/23/23 22/22/22 25/25/25
f 25/25/25 15/15/15 16/16/16
f 19/19/19 15/15/15 25/25/25
f 26/26/26 25/25/25 16/16/16
f 26/26/26 16/16/16 20/20/20
f 26/26/26 20/20/20 24/24/24
f 22/22/22 17/17/17 19/19/19
f 18/18/18 17/17/17 22/22/22
f 25/25/25 22/22/22 19/19/19
f 21/21/21 18/18/18 23/23/23
f 22/22/22 23/23/23 18/18/18
f 33/33/33 36/36/36 38/38/38
f 35/35/35 38/38/38 37/37/37
f 37/37/37 28/28/28 27/27/27
f 31/31/31 37/37/37 27/27/27
f 38/38/38 28/28/28 37/37/37
f 38/38/38 32/32/32 28/28/28
f 38/38/38 36/36/36 32/32/32
f 34/34/34 31/31/31 29/29/29
f 30/30/30 34/34/34 29/29/29
f 37/37/37 31/31/31 34/34/34
f 33/33/33 35/35/35 30/30/30
f 34/34/34 30/30/30 35/35/35
f 45/45/45 39/39/39 46/46/46
f 45/45/45 44/44/44 40/40/40
f 43/43/43 45/45/45 46/46/46
f 45/45/45 43/43/43 44/44/44
f 43/43/43 42/42/42 44/44/44
f 41/41/41 43/43/43 46/46/46
f 48/48/48 47/47/47 51/51/51
f 49/49/49 50/50/50 52/52/52
f 58/58/58 60/60/60 59/59/59
f 59/59/59 60/60/60 54/54/54
f 57/57/57 59/59/59 53/53/53
f 53/53/53 55/55/55 57/57/57
f 60/60/60 58/58/58 56/56/56
f 59/59/59 57/57/57 58/58/58
f 66/66/66 67/67/67 68/68/68
f 67/67/67 62/62/62 68/68/68
f 65/65/65 61/61/61 67/67/67
f 61/61/61 65/65/65 63/63/63
f 68/68/68 64/64/64 66/66/66
f 67/67/67 66/66/66 65/65/65
f 70/70/70 74/74/74 73/73/73
f 71/71/71 73/73/73 74/74/74
f 9/9/9 3/3/3 6/6/6
f 8/8/8 6/6/6 7/7/7
f 21/21/21 26/26/26 24/24/24
f 23/23/23 25/25/25 26/26/26
f 33/33/33 38/38/38 35/35/35
f 35/35/35 37/37/37 34/34/34
f 48/48/48 51/51/51 52/52/52
f 49/49/49 52/52/52 51/51/51
f 70/70/70 73/73/73 69/69/69
f 71/71/71 74/74/74 72/72/72
